<?xml version="1.0" encoding="iso-8859-1"?><svg version="1.1" id="Capa_1" xmlns="http://www.w3.org/2000/svg" xmlns:xlink="http://www.w3.org/1999/xlink" x="0px" y="0px"	 viewBox="0 0 270.433 270.433" style="enable-background:new 0 0 270.433 270.433;" xml:space="preserve"><g>	<g>		<path style="fill:#030104;" d="M231.512,99.904l0.027-0.134l-0.072-0.933l0.051-0.942l-0.026-0.133l0,0l0.023-0.291 c-0.836-12.77-8.102-20.296-21.215-23.084c-1.137-5.815-2.672-11.629-4.918-17.437c-4.268-0.827-8.212-0.722-12.075-0.411 c-1.771,12.798-7.766,17.477-17.546,20.446l-18.107-0.09l-0.585-20.916c2.764-9.825,7.306-15.927,20.063-17.992 c0.225-3.875,0.243-7.816-0.682-12.062c-5.854-2.105-11.697-3.514-17.542-4.521c-3.074-13.063-10.763-20.158-23.546-20.696 l-0.204,0.005L134.11,0.78l-1.046-0.045l-0.208,0.001c-12.759,0.824-20.296,8.086-23.084,21.216 c-5.817,1.134-11.628,2.67-17.425,4.901c-0.837,4.272-0.735,8.21-0.422,12.076c12.796,1.785,17.476,7.783,20.457,17.544 l-0.122,20.923l-18.103,0.492c-9.831-2.752-15.927-7.293-17.993-20.051c-3.872-0.225-7.816-0.242-12.065,0.678 c-2.1,5.857-3.522,11.703-4.527,17.542c-13.051,3.079-20.147,10.763-20.686,23.55l0.016,0.288l-0.012,0.136l0.062,0.94 l-0.041,0.936l0.015,0.133l-0.011,0.293c0.825,12.77,8.09,20.304,21.205,23.083c1.135,5.815,2.686,11.628,4.914,17.435 c4.27,0.842,8.211,0.725,12.08,0.428c1.779-12.812,7.777-17.492,17.542-20.461l18.111,0.093l1.594,112.187 c-2.76,9.826-7.305,15.924-20.06,17.99c-0.228,3.874-0.244,7.815,0.691,12.063c5.844,2.103,11.688,3.523,17.53,4.53 c0.002,0.008,0.006,0.018,0.005,0.027c16.485-0.359,33.021-2.715,49.419-0.637c5.721-1.127,11.44-2.658,17.146-4.854 c0.833-4.271,0.728-8.207,0.416-12.077c-12.799-1.78-17.477-7.777-20.461-17.539l-0.888-112.196l18.103-0.494 c9.842,2.754,15.94,7.3,17.99,20.066c3.872,0.213,7.816,0.24,12.066-0.692c2.114-5.854,3.522-11.699,4.527-17.538 c13.051-3.067,20.146-10.764,20.697-23.55L231.512,99.904z"/>		<path style="fill:#030104;" d="M111.735,270.433l0.019-0.168c-6.161-1.094-11.729-2.551-17.001-4.448l-0.368-0.132l-0.084-0.382 c-0.993-4.51-0.914-8.727-0.706-12.258l0.033-0.566l0.56-0.091c12.676-2.052,16.859-8.172,19.463-17.383l-1.583-111.39 l-17.309-0.089c-9.151,2.801-15.177,7.119-16.944,19.85l-0.078,0.564l-0.569,0.044c-2.014,0.154-3.582,0.224-5.085,0.224 c-2.574,0-4.925-0.217-7.186-0.663l-0.384-0.075l-0.14-0.365c-2.035-5.305-3.625-10.902-4.858-17.096 c-13.316-2.966-20.485-10.914-21.307-23.63l0.009-0.309l-0.016-0.139l0.043-0.991l-0.064-0.917l0.016-0.189l-0.017-0.188 c0.536-12.791,7.526-20.898,20.775-24.168c1.094-6.22,2.56-11.852,4.478-17.202l0.133-0.37l0.384-0.083 C66.542,57.262,69.16,57,72.189,57c1.215,0,2.491,0.042,4.017,0.13l0.567,0.033l0.091,0.561 c2.053,12.677,8.173,16.857,17.382,19.454l17.311-0.47l0.118-20.13c-2.813-9.148-7.134-15.173-19.846-16.947l-0.562-0.078 l-0.046-0.566c-0.285-3.52-0.457-7.73,0.433-12.269l0.075-0.384l0.365-0.141c5.241-2.017,10.834-3.604,17.086-4.846 c2.973-13.324,10.921-20.496,23.631-21.317l0.25-0.002l1.08,0.045L135.345,0c12.773,0.536,20.879,7.529,24.142,20.786 c6.275,1.104,11.906,2.568,17.202,4.473l0.369,0.132l0.083,0.383c0.978,4.483,0.913,8.539,0.698,12.254l-0.033,0.567l-0.561,0.091 c-12.669,2.051-16.856,8.17-19.466,17.382l0.562,20.123l17.315,0.086c9.158-2.798,15.188-7.113,16.948-19.834l0.078-0.563 l0.566-0.045c1.962-0.158,3.582-0.231,5.101-0.231c2.554,0,4.897,0.213,7.166,0.652l0.385,0.075l0.141,0.365 c2.021,5.224,3.612,10.822,4.862,17.1c13.313,2.974,20.485,10.922,21.316,23.63l0.004,0.052l-0.02,0.245l0.024,0.124l-0.056,1.03 l0.079,0.939l-0.025,0.125l0.024,0.237l-0.003,0.052c-0.549,12.736-7.542,20.842-20.786,24.099 c-1.105,6.286-2.572,11.916-4.479,17.198l-0.133,0.367l-0.382,0.084c-2.584,0.567-5.212,0.831-8.27,0.831 c-0.001,0-0.001,0-0.001,0c-1.188,0-2.453-0.039-3.985-0.123l-0.569-0.031l-0.091-0.563c-2.038-12.686-8.16-16.87-17.379-19.468 l-17.302,0.473l0.882,111.398c2.814,9.152,7.137,15.179,19.852,16.947l0.562,0.078l0.046,0.566 c0.298,3.706,0.453,7.757-0.427,12.27l-0.075,0.385l-0.366,0.141c-5.329,2.05-10.976,3.648-17.264,4.887l-0.112,0.022 l-0.113-0.015c-4.466-0.565-9.263-0.841-14.665-0.841c-6.4,0-12.932,0.388-19.249,0.763c-5.047,0.299-10.266,0.609-15.4,0.721 L111.735,270.433z M95.602,264.617c5.269,1.87,10.848,3.3,17.04,4.367l0.069,0.012c5.044-0.115,10.18-0.42,15.148-0.715 c6.337-0.376,12.89-0.765,19.333-0.765c5.417,0,10.236,0.274,14.729,0.838c6.018-1.19,11.437-2.716,16.55-4.657 c0.725-3.968,0.628-7.594,0.376-10.938c-13.028-1.979-17.622-8.614-20.476-17.951l-0.031-0.201l-0.895-112.891l18.905-0.516 l0.103,0.029c9.408,2.633,16.147,7.074,18.404,20.07c1.257,0.062,2.33,0.092,3.342,0.092h0.001c2.802,0,5.225-0.229,7.585-0.717 c1.86-5.225,3.289-10.806,4.363-17.047l0.079-0.462l0.456-0.107c13.01-3.058,19.601-10.529,20.149-22.84l-0.036-0.349l0.029-0.143 l-0.064-0.834l0.046-0.944l-0.029-0.145l0.027-0.337c-0.821-12.283-7.577-19.607-20.652-22.387l-0.458-0.097l-0.09-0.459 c-1.218-6.233-2.771-11.782-4.742-16.95c-2.06-0.373-4.194-0.555-6.512-0.555c-1.333,0-2.751,0.059-4.425,0.184 c-1.972,13.039-8.612,17.624-17.959,20.461l-0.103,0.031L156.966,77.6l-0.607-21.708l0.029-0.104 c2.645-9.399,7.09-16.136,20.069-18.404c0.177-3.352,0.193-6.979-0.617-10.924c-5.239-1.858-10.821-3.284-17.052-4.357 l-0.462-0.08l-0.107-0.456c-3.067-13.04-10.554-19.631-22.886-20.15l-1.178,0.071l-1.121-0.044l-0.174,0.001 c-12.273,0.794-19.612,7.551-22.395,20.655l-0.097,0.458l-0.459,0.089c-6.208,1.21-11.754,2.758-16.938,4.727 c-0.731,3.981-0.634,7.602-0.382,10.937c13.027,1.985,17.621,8.621,20.473,17.956l0.031,0.104l-0.126,21.716L94.07,78.598 l-0.103-0.029C84.568,75.938,77.831,71.5,75.56,58.513c-1.254-0.066-2.337-0.097-3.372-0.097c-2.775,0-5.188,0.226-7.556,0.71 c-1.872,5.292-3.3,10.875-4.363,17.051l-0.08,0.461l-0.456,0.107c-13.033,3.075-19.622,10.562-20.141,22.891l0.015,0.22 l-0.01,0.168l0.06,0.899l-0.038,0.957l0.015,0.133l-0.013,0.346c0.795,12.25,7.548,19.588,20.645,22.363l0.458,0.097l0.09,0.46 c1.201,6.151,2.752,11.7,4.74,16.95c2.053,0.378,4.193,0.562,6.528,0.562c1.323,0,2.703-0.056,4.412-0.178 c1.979-13.045,8.616-17.635,17.955-20.474l0.103-0.031l18.913,0.097l1.605,112.985l-0.028,0.099 c-2.639,9.396-7.082,16.132-20.066,18.402C94.798,257.037,94.781,260.661,95.602,264.617z"/>	</g></g><g></g><g></g><g></g><g></g><g></g><g></g><g></g><g></g><g></g><g></g><g></g><g></g><g></g><g></g><g></g></svg>